<svg width="127" height="39" viewBox="0 0 127 39" fill="none" xmlns="http://www.w3.org/2000/svg">
<g filter="url(#filter0_d_101_1740)">
<path d="M19.6654 22.2579C18.3334 22.2579 17.2294 21.9759 16.3534 21.4119C15.4774 20.8479 14.8654 20.0859 14.5174 19.1259L17.2714 17.5239C17.7394 18.6399 18.5674 19.1979 19.7554 19.1979C20.7394 19.1979 21.2314 18.9159 21.2314 18.3519C21.2314 17.9799 20.9494 17.6799 20.3854 17.4519C20.1454 17.3559 19.6174 17.1939 18.8014 16.9659C17.6494 16.6299 16.7374 16.1619 16.0654 15.5619C15.3934 14.9499 15.0574 14.1039 15.0574 13.0239C15.0574 11.8599 15.4714 10.9179 16.2994 10.1979C17.1394 9.47785 18.1834 9.11785 19.4314 9.11785C20.4874 9.11785 21.4234 9.36385 22.2394 9.85585C23.0554 10.3479 23.6794 11.0619 24.1114 11.9979L21.4114 13.5819C21.0154 12.6459 20.3614 12.1779 19.4494 12.1779C19.0654 12.1779 18.7714 12.2559 18.5674 12.4119C18.3754 12.5679 18.2794 12.7659 18.2794 13.0059C18.2794 13.2819 18.4234 13.5159 18.7114 13.7079C19.0114 13.8999 19.5874 14.1219 20.4394 14.3739C21.0514 14.5539 21.5434 14.7219 21.9154 14.8779C22.2874 15.0339 22.6954 15.2619 23.1394 15.5619C23.5834 15.8499 23.9134 16.2279 24.1294 16.6959C24.3454 17.1519 24.4534 17.6919 24.4534 18.3159C24.4534 19.5519 24.0154 20.5179 23.1394 21.2139C22.2634 21.9099 21.1054 22.2579 19.6654 22.2579ZM36.0648 21.9879H32.4648L28.8468 16.3539V21.9879H25.6248V9.38785H28.8468V14.6799L32.2848 9.38785H35.8848L31.8888 15.5079L36.0648 21.9879ZM36.9802 9.38785H40.2022V21.9879H36.9802V9.38785ZM49.1314 9.38785H52.3354V21.9879H49.8514L45.4054 15.6519V21.9879H42.1834V9.38785H44.6854L49.1314 15.7239V9.38785ZM67.048 9.38785V12.5019H63.934V21.9879H60.712V12.5019H57.598V9.38785H67.048ZM74.7866 21.9879L72.5906 17.9199H71.4386V21.9879H68.2166V9.38785H73.2566C74.5406 9.38785 75.6146 9.80185 76.4786 10.6299C77.3546 11.4459 77.7926 12.4839 77.7926 13.7439C77.7926 14.4999 77.6006 15.1959 77.2166 15.8319C76.8326 16.4559 76.3106 16.9539 75.6506 17.3259L78.2426 21.9879H74.7866ZM71.4386 12.3579V15.1839H73.2206C73.6166 15.1959 73.9406 15.0699 74.1926 14.8059C74.4446 14.5419 74.5706 14.1999 74.5706 13.7799C74.5706 13.3599 74.4446 13.0179 74.1926 12.7539C73.9406 12.4899 73.6166 12.3579 73.2206 12.3579H71.4386ZM87.2229 21.9879L86.6829 20.1699H82.4889L81.9489 21.9879H78.4569L82.6149 9.38785H86.5389L90.6969 21.9879H87.2229ZM83.3169 17.3979H85.8549L84.5769 13.1139L83.3169 17.3979ZM96.743 9.38785C98.483 9.38785 99.935 9.99385 101.099 11.2059C102.275 12.4059 102.863 13.8999 102.863 15.6879C102.863 17.4759 102.275 18.9759 101.099 20.1879C99.935 21.3879 98.483 21.9879 96.743 21.9879H91.613V9.38785H96.743ZM96.743 18.8739C97.619 18.8739 98.333 18.5859 98.885 18.0099C99.437 17.4219 99.713 16.6479 99.713 15.6879C99.713 14.7279 99.437 13.9599 98.885 13.3839C98.333 12.7959 97.619 12.5019 96.743 12.5019H94.925V18.8739H96.743ZM107.579 18.9639H112.457V21.9879H104.357V9.38785H112.367V12.3939H107.579V14.1399H111.917V17.1099H107.579V18.9639Z" fill="white"/>
<rect x="4.75" y="1.15656" width="117.5" height="29.08" rx="3.25" stroke="url(#paint0_linear_101_1740)" stroke-width="1.5"/>
</g>
<defs>
<filter id="filter0_d_101_1740" x="0" y="0.406555" width="127" height="38.58" filterUnits="userSpaceOnUse" color-interpolation-filters="sRGB">
<feFlood flood-opacity="0" result="BackgroundImageFix"/>
<feColorMatrix in="SourceAlpha" type="matrix" values="0 0 0 0 0 0 0 0 0 0 0 0 0 0 0 0 0 0 127 0" result="hardAlpha"/>
<feOffset dy="4"/>
<feGaussianBlur stdDeviation="2"/>
<feComposite in2="hardAlpha" operator="out"/>
<feColorMatrix type="matrix" values="0 0 0 0 0 0 0 0 0 0 0 0 0 0 0 0 0 0 0.25 0"/>
<feBlend mode="normal" in2="BackgroundImageFix" result="effect1_dropShadow_101_1740"/>
<feBlend mode="normal" in="SourceGraphic" in2="effect1_dropShadow_101_1740" result="shape"/>
</filter>
<linearGradient id="paint0_linear_101_1740" x1="123" y1="0.406557" x2="4" y2="30.9866" gradientUnits="userSpaceOnUse">
<stop stop-color="#7F00FF"/>
<stop offset="1" stop-color="#19D233"/>
</linearGradient>
</defs>
</svg>
